ffmpeg version N-82167-g5e96558 Copyright (c) 2000-2016 the FFmpeg developers
  built with gcc 5.4.0 (Ubuntu 5.4.0-6ubuntu1~16.04.2) 20160609
  configuration: --prefix=/root/ffmpeg_build --pkg-config-flags=--static --extra-cflags=-I/root/ffmpeg_build/include --extra-ldflags=-L/root/ffmpeg_build/lib --bindir=/root/bin --enable-gpl --enable-libass --enable-libfdk-aac --enable-libfreetype --enable-libmp3lame --enable-libopus --enable-libtheora --enable-libvorbis --enable-libx264 --enable-libx265 --enable-nonfree
  libavutil      55. 35.100 / 55. 35.100
  libavcodec     57. 65.100 / 57. 65.100
  libavformat    57. 57.100 / 57. 57.100
  libavdevice    57.  2.100 / 57.  2.100
  libavfilter     6. 66.100 /  6. 66.100
  libswscale      4.  3.100 /  4.  3.100
  libswresample   2.  4.100 /  2.  4.100
  libpostproc    54.  2.100 / 54.  2.100
Input #0, matroska,webm, from '/media/yubikiri/bot/queue/3AnimePahe_Detective_Conan_-_023_720p_Fansub.mkv':
  Metadata:
    title           : 3|Text||0|0
    ENCODER         : Lavf57.57.100
  Duration: 00:24:42.19, start: 0.000000, bitrate: 970 kb/s
    Stream #0:0: Video: mpeg4 (Simple Profile), yuv420p, 640x480 [SAR 1:1 DAR 4:3], 23.98 fps, 23.98 tbr, 1k tbn, 23.98 tbc (default)
    Metadata:
      DURATION        : 00:24:42.191000000
    Stream #0:1: Audio: mp3, 48000 Hz, stereo, s16p, 80 kb/s (default)
    Metadata:
      DURATION        : 00:24:42.000000000
[libx264 @ 0x30684c0] using SAR=1/1
[libx264 @ 0x30684c0] using cpu capabilities: MMX2 SSE2Fast SSSE3 SSE4.2 AVX FMA3 AVX2 LZCNT BMI2
[libx264 @ 0x30684c0] profile High, level 3.1
[libx264 @ 0x30684c0] 264 - core 148 r2643 5c65704 - H.264/MPEG-4 AVC codec - Copyleft 2003-2015 - http://www.videolan.org/x264.html - options: cabac=1 ref=8 deblock=1:1:1 analyse=0x3:0x133 me=umh subme=7 psy=1 psy_rd=0.00:0.00 mixed_ref=1 me_range=8 chroma_me=1 trellis=0 8x8dct=1 cqm=0 deadzone=21,11 fast_pskip=1 chroma_qp_offset=0 threads=8 lookahead_threads=2 sliced_threads=0 nr=0 decimate=1 interlaced=0 bluray_compat=0 constrained_intra=0 bframes=3 b_pyramid=2 b_adapt=2 b_bias=0 direct=1 weightb=1 open_gop=0 weightp=2 keyint=240 keyint_min=24 scenecut=40 intra_refresh=0 rc_lookahead=60 rc=crf mbtree=1 crf=27.0 qcomp=0.60 qpmin=0 qpmax=69 qpstep=4 ip_ratio=1.40 aq=1:1.00
[libfdk_aac @ 0x305e620] Note, the VBR setting is unsupported and only works with some parameter combinations
Output #0, mp4, to '/media/yubikiri/bot/queue/3AnimePahe_Detective_Conan_-_023_720p_Fansub.mkv_encoded.mp4':
  Metadata:
    encoder         : Lavf57.57.100
    Stream #0:0: Video: h264 (libx264) ([33][0][0][0] / 0x0021), yuv420p, 640x480 [SAR 1:1 DAR 4:3], q=-1--1, 23.98 fps, 11988 tbn, 23.98 tbc (default)
    Metadata:
      encoder         : Lavc57.65.100 libx264
    Side data:
      cpb: bitrate max/min/avg: 0/0/0 buffer size: 0 vbv_delay: -1
    Stream #0:1: Audio: aac (libfdk_aac) (HE-AACv2) ([64][0][0][0] / 0x0040), 48000 Hz, stereo, s16, 48 kb/s (default)
    Metadata:
      encoder         : Lavc57.65.100 libfdk_aac
Stream mapping:
  Stream #0:0 -> #0:0 (mpeg4 (native) -> h264 (libx264))
  Stream #0:1 -> #0:1 (mp3 (native) -> aac (libfdk_aac))
Press [q] to stop, [?] for help
frame=  113 fps=0.0 q=32.0 size=     139kB time=00:00:04.88 bitrate= 232.8kbits/s dup=1 drop=0 speed=9.63x    frame=  167 fps=166 q=32.0 size=     342kB time=00:00:07.14 bitrate= 392.3kbits/s dup=1 drop=0 speed=7.09x    frame=  223 fps=148 q=32.0 size=     545kB time=00:00:09.45 bitrate= 472.1kbits/s dup=1 drop=0 speed=6.26x    frame=  279 fps=138 q=32.0 size=     727kB time=00:00:11.79 bitrate= 504.8kbits/s dup=1 drop=0 speed=5.82x    frame=  324 fps=127 q=32.0 size=    1019kB time=00:00:13.67 bitrate= 610.5kbits/s dup=1 drop=0 speed=5.35x    frame=  381 fps=125 q=32.0 size=    1356kB time=00:00:16.06 bitrate= 691.6kbits/s dup=1 drop=0 speed=5.26x    frame=  498 fps=140 q=32.0 size=    1551kB time=00:00:20.97 bitrate= 605.8kbits/s dup=1 drop=0 speed= 5.9x    frame=  612 fps=150 q=32.0 size=    1738kB time=00:00:25.66 bitrate= 554.9kbits/s dup=1 drop=0 speed=6.29x    frame=  708 fps=154 q=32.0 size=    1911kB time=00:00:29.67 bitrate= 527.5kbits/s dup=1 drop=0 speed=6.47x    frame=  787 fps=154 q=32.0 size=    2092kB time=00:00:32.96 bitrate= 520.0kbits/s dup=1 drop=0 speed=6.45x    frame=  855 fps=151 q=32.0 size=    2286kB time=00:00:35.81 bitrate= 522.9kbits/s dup=1 drop=0 speed=6.32x    frame=  920 fps=149 q=32.0 size=    2504kB time=00:00:38.50 bitrate= 532.8kbits/s dup=1 drop=0 speed=6.23x    frame= 1015 fps=152 q=32.0 size=    2709kB time=00:00:42.51 bitrate= 522.0kbits/s dup=1 drop=0 speed=6.37x    frame= 1097 fps=153 q=32.0 size=    2959kB time=00:00:45.93 bitrate= 527.7kbits/s dup=1 drop=0 speed= 6.4x    frame= 1174 fps=153 q=32.0 size=    3160kB time=00:00:49.13 bitrate= 526.9kbits/s dup=1 drop=0 speed= 6.4x    frame= 1232 fps=151 q=32.0 size=    3398kB time=00:00:51.56 bitrate= 539.9kbits/s dup=1 drop=0 speed= 6.3x    frame= 1306 fps=150 q=32.0 size=    3629kB time=00:00:54.63 bitrate= 544.2kbits/s dup=1 drop=0 speed=6.29x    frame= 1394 fps=152 q=32.0 size=    3789kB time=00:00:58.30 bitrate= 532.4kbits/s dup=1 drop=0 speed=6.35x    frame= 1496 fps=154 q=32.0 size=    3980kB time=00:01:02.52 bitrate= 521.4kbits/s dup=1 drop=0 speed=6.45x    frame= 1611 fps=158 q=32.0 size=    4115kB time=00:01:07.35 bitrate= 500.6kbits/s dup=1 drop=0 speed= 6.6x    frame= 1704 fps=159 q=32.0 size=    4244kB time=00:01:11.23 bitrate= 488.0kbits/s dup=1 drop=0 speed=6.65x    frame= 1785 fps=159 q=32.0 size=    4450kB time=00:01:14.60 bitrate= 488.6kbits/s dup=1 drop=0 speed=6.63x    frame= 1861 fps=158 q=32.0 size=    4607kB time=00:01:17.80 bitrate= 485.0kbits/s dup=1 drop=0 speed=6.62x    frame= 1926 fps=157 q=29.0 size=    4761kB time=00:01:20.49 bitrate= 484.6kbits/s dup=1 drop=0 speed=6.56x    frame= 2000 fps=157 q=32.0 size=    4972kB time=00:01:23.56 bitrate= 487.4kbits/s dup=1 drop=0 speed=6.54x    frame= 2071 fps=156 q=32.0 size=    5105kB time=00:01:26.55 bitrate= 483.2kbits/s dup=1 drop=0 speed=6.52x    frame= 2138 fps=155 q=32.0 size=    5274kB time=00:01:29.32 bitrate= 483.7kbits/s dup=1 drop=0 speed=6.48x    frame= 2324 fps=163 q=32.0 size=    5411kB time=00:01:37.08 bitrate= 456.6kbits/s dup=1 drop=0 speed= 6.8x    frame= 2483 fps=168 q=32.0 size=    5495kB time=00:01:43.74 bitrate= 433.9kbits/s dup=1 drop=0 speed=7.02x    frame= 2662 fps=174 q=32.0 size=    5617kB time=00:01:51.21 bitrate= 413.8kbits/s dup=1 drop=0 speed=7.28x    frame= 2773 fps=176 q=32.0 size=    5808kB time=00:01:55.81 bitrate= 410.8kbits/s dup=1 drop=0 speed=7.33x    frame= 2835 fps=174 q=32.0 size=    5971kB time=00:01:58.37 bitrate= 413.2kbits/s dup=1 drop=0 speed=7.26x    frame= 2902 fps=173 q=32.0 size=    6153kB time=00:02:01.19 bitrate= 415.9kbits/s dup=1 drop=0 speed=7.21x    frame= 2958 fps=171 q=32.0 size=    6327kB time=00:02:03.54 bitrate= 419.5kbits/s dup=1 drop=0 speed=7.13x    frame= 3001 fps=168 q=32.0 size=    6416kB time=00:02:05.33 bitrate= 419.4kbits/s dup=1 drop=0 speed=7.02x    frame= 3053 fps=166 q=32.0 size=    6558kB time=00:02:07.46 bitrate= 421.5kbits/s dup=1 drop=0 speed=6.94x    frame= 3117 fps=165 q=32.0 size=    6657kB time=00:02:10.15 bitrate= 419.0kbits/s dup=1 drop=0 speed= 6.9x    frame= 3164 fps=163 q=32.0 size=    6744kB time=00:02:12.11 bitrate= 418.1kbits/s dup=1 drop=0 speed=6.82x    frame= 3209 fps=161 q=32.0 size=    6837kB time=00:02:13.99 bitrate= 418.0kbits/s dup=1 drop=0 speed=6.74x    frame= 3256 fps=160 q=32.0 size=    6937kB time=00:02:15.95 bitrate= 418.0kbits/s dup=1 drop=0 speed=6.67x    frame= 3323 fps=159 q=32.0 size=    7041kB time=00:02:18.77 bitrate= 415.7kbits/s dup=1 drop=0 speed=6.64x    frame= 3369 fps=157 q=32.0 size=    7175kB time=00:02:20.65 bitrate= 417.9kbits/s dup=1 drop=0 speed=6.57x    frame= 3415 fps=156 q=32.0 size=    7305kB time=00:02:22.57 bitrate= 419.8kbits/s dup=1 drop=0 speed= 6.5x    frame= 3459 fps=154 q=32.0 size=    7433kB time=00:02:24.40 bitrate= 421.6kbits/s dup=1 drop=0 speed=6.44x    frame= 3502 fps=153 q=32.0 size=    7545kB time=00:02:26.19 bitrate= 422.8kbits/s dup=1 drop=0 speed=6.38x    frame= 3562 fps=152 q=32.0 size=    7687kB time=00:02:28.71 bitrate= 423.4kbits/s dup=1 drop=0 speed=6.35x    frame= 3608 fps=151 q=32.0 size=    7776kB time=00:02:30.63 bitrate= 422.9kbits/s dup=1 drop=0 speed=6.29x    frame= 3656 fps=150 q=32.0 size=    7852kB time=00:02:32.68 bitrate= 421.3kbits/s dup=1 drop=0 speed=6.25x    frame= 3727 fps=149 q=32.0 size=    7967kB time=00:02:35.62 bitrate= 419.4kbits/s dup=1 drop=0 speed=6.24x    frame= 3839 fps=151 q=32.0 size=    8020kB time=00:02:40.27 bitrate= 409.9kbits/s dup=1 drop=0 speed= 6.3x    frame= 3892 fps=150 q=32.0 size=    8111kB time=00:02:42.49 bitrate= 408.9kbits/s dup=1 drop=0 speed=6.26x    frame= 3934 fps=149 q=32.0 size=    8182kB time=00:02:44.24 bitrate= 408.1kbits/s dup=1 drop=0 speed=6.21x    frame= 4001 fps=148 q=32.0 size=    8283kB time=00:02:47.01 bitrate= 406.2kbits/s dup=1 drop=0 speed=6.19x    frame= 4057 fps=148 q=32.0 size=    8366kB time=00:02:49.36 bitrate= 404.6kbits/s dup=1 drop=0 speed=6.16x    frame= 4113 fps=147 q=32.0 size=    8473kB time=00:02:51.71 bitrate= 404.2kbits/s dup=1 drop=0 speed=6.14x    frame= 4164 fps=146 q=32.0 size=    8575kB time=00:02:53.84 bitrate= 404.1kbits/s dup=1 drop=0 speed= 6.1x    frame= 4243 fps=146 q=32.0 size=    8659kB time=00:02:57.13 bitrate= 400.5kbits/s dup=1 drop=0 speed=6.11x    frame= 4322 fps=147 q=32.0 size=    8758kB time=00:03:00.41 bitrate= 397.7kbits/s dup=1 drop=0 speed=6.12x    frame= 4376 fps=146 q=32.0 size=    8840kB time=00:03:02.67 bitrate= 396.4kbits/s dup=1 drop=0 speed=6.09x    frame= 4429 fps=145 q=32.0 size=    8920kB time=00:03:04.89 bitrate= 395.2kbits/s dup=1 drop=0 speed=6.07x    frame= 4481 fps=145 q=32.0 size=    9005kB time=00:03:07.03 bitrate= 394.4kbits/s dup=1 drop=0 speed=6.04x    frame= 4532 fps=144 q=32.0 size=    9109kB time=00:03:09.16 bitrate= 394.5kbits/s dup=1 drop=0 speed=6.01x    frame= 4611 fps=144 q=32.0 size=    9236kB time=00:03:12.49 bitrate= 393.1kbits/s dup=1 drop=0 speed=6.01x    frame= 4680 fps=144 q=32.0 size=    9343kB time=00:03:15.35 bitrate= 391.8kbits/s dup=1 drop=0 speed=6.01x    frame= 4752 fps=144 q=32.0 size=    9499kB time=00:03:18.33 bitrate= 392.3kbits/s dup=1 drop=0 speed=6.01x    frame= 4838 fps=144 q=32.0 size=    9602kB time=00:03:21.92 bitrate= 389.6kbits/s dup=1 drop=0 speed=6.02x    frame= 4926 fps=145 q=32.0 size=    9682kB time=00:03:25.59 bitrate= 385.8kbits/s dup=1 drop=0 speed=6.04x    frame= 5002 fps=145 q=32.0 size=    9762kB time=00:03:28.79 bitrate= 383.0kbits/s dup=1 drop=0 speed=6.05x    frame= 5070 fps=145 q=32.0 size=    9876kB time=00:03:31.64 bitrate= 382.3kbits/s dup=1 drop=0 speed=6.04x    frame= 5158 fps=145 q=32.0 size=    9963kB time=00:03:35.27 bitrate= 379.1kbits/s dup=1 drop=0 speed=6.05x    frame= 5216 fps=145 q=32.0 size=   10055kB time=00:03:37.70 bitrate= 378.4kbits/s dup=1 drop=0 speed=6.03x    frame= 5257 fps=144 q=32.0 size=   10159kB time=00:03:39.41 bitrate= 379.3kbits/s dup=1 drop=0 speed=   6x    frame= 5301 fps=143 q=32.0 size=   10251kB time=00:03:41.24 bitrate= 379.6kbits/s dup=1 drop=0 speed=5.96x    frame= 5358 fps=142 q=32.0 size=   10336kB time=00:03:43.63 bitrate= 378.6kbits/s dup=1 drop=0 speed=5.95x    frame= 5411 fps=142 q=32.0 size=   10406kB time=00:03:45.81 bitrate= 377.5kbits/s dup=1 drop=0 speed=5.93x    frame= 5450 fps=141 q=32.0 size=   10484kB time=00:03:47.47 bitrate= 377.6kbits/s dup=1 drop=0 speed=5.89x    frame= 5509 fps=141 q=32.0 size=   10568kB time=00:03:49.91 bitrate= 376.5kbits/s dup=1 drop=0 speed=5.88x    frame= 5545 fps=140 q=32.0 size=   10627kB time=00:03:51.44 bitrate= 376.1kbits/s dup=1 drop=0 speed=5.84x    frame= 5592 fps=139 q=32.0 size=   10696kB time=00:03:53.40 bitrate= 375.4kbits/s dup=1 drop=0 speed=5.82x    frame= 5641 fps=139 q=32.0 size=   10795kB time=00:03:55.45 bitrate= 375.6kbits/s dup=1 drop=0 speed=5.79x    frame= 5693 fps=138 q=32.0 size=   10868kB time=00:03:57.59 bitrate= 374.7kbits/s dup=1 drop=0 speed=5.77x    frame= 5751 fps=138 q=32.0 size=   10943kB time=00:04:00.06 bitrate= 373.4kbits/s dup=1 drop=0 speed=5.76x    frame= 5837 fps=138 q=32.0 size=   11074kB time=00:04:03.60 bitrate= 372.4kbits/s dup=1 drop=0 speed=5.77x    frame= 5933 fps=139 q=32.0 size=   11173kB time=00:04:07.61 bitrate= 369.6kbits/s dup=1 drop=0 speed= 5.8x    frame= 6031 fps=140 q=32.0 size=   11297kB time=00:04:11.71 bitrate= 367.6kbits/s dup=1 drop=0 speed=5.83x    frame= 6086 fps=139 q=32.0 size=   11390kB time=00:04:13.97 bitrate= 367.4kbits/s dup=1 drop=0 speed=5.81x    frame= 6140 fps=139 q=32.0 size=   11478kB time=00:04:16.23 bitrate= 367.0kbits/s dup=1 drop=0 speed=5.79x    frame= 6196 fps=138 q=32.0 size=   11561kB time=00:04:18.58 bitrate= 366.3kbits/s dup=1 drop=0 speed=5.78x    frame= 6249 fps=138 q=32.0 size=   11704kB time=00:04:20.80 bitrate= 367.6kbits/s dup=1 drop=0 speed=5.76x    frame= 6327 fps=138 q=32.0 size=   11800kB time=00:04:24.04 bitrate= 366.1kbits/s dup=1 drop=0 speed=5.77x    frame= 6419 fps=139 q=32.0 size=   11923kB time=00:04:27.88 bitrate= 364.6kbits/s dup=1 drop=0 speed=5.79x    frame= 6511 fps=139 q=32.0 size=   12025kB time=00:04:31.72 bitrate= 362.5kbits/s dup=1 drop=0 speed=5.81x    frame= 6566 fps=139 q=32.0 size=   12176kB time=00:04:34.02 bitrate= 364.0kbits/s dup=1 drop=0 speed=5.79x    frame= 6659 fps=139 q=32.0 size=   12330kB time=00:04:37.91 bitrate= 363.5kbits/s dup=1 drop=0 speed=5.82x    frame= 6749 fps=140 q=32.0 size=   12443kB time=00:04:41.62 bitrate= 361.9kbits/s dup=1 drop=0 speed=5.83x    frame= 6827 fps=140 q=32.0 size=   12534kB time=00:04:44.90 bitrate= 360.4kbits/s dup=1 drop=0 speed=5.84x    frame= 6880 fps=139 q=32.0 size=   12657kB time=00:04:47.12 bitrate= 361.1kbits/s dup=1 drop=0 speed=5.82x    frame= 6952 fps=139 q=32.0 size=   12826kB time=00:04:50.11 bitrate= 362.2kbits/s dup=1 drop=0 speed=5.82x    frame= 7040 fps=140 q=32.0 size=   12972kB time=00:04:53.78 bitrate= 361.7kbits/s dup=1 drop=0 speed=5.84x    frame= 7117 fps=140 q=32.0 size=   13119kB time=00:04:56.98 bitrate= 361.9kbits/s dup=1 drop=0 speed=5.84x    frame= 7204 fps=140 q=32.0 size=   13228kB time=00:05:00.60 bitrate= 360.5kbits/s dup=1 drop=0 speed=5.85x    frame= 7254 fps=140 q=32.0 size=   13350kB time=00:05:02.69 bitrate= 361.3kbits/s dup=1 drop=0 speed=5.84x    frame= 7314 fps=140 q=32.0 size=   13441kB time=00:05:05.21 bitrate= 360.7kbits/s dup=1 drop=0 speed=5.83x    frame= 7381 fps=140 q=32.0 size=   13615kB time=00:05:08.03 bitrate= 362.1kbits/s dup=1 drop=0 speed=5.82x    frame= 7482 fps=140 q=32.0 size=   13744kB time=00:05:12.25 bitrate= 360.6kbits/s dup=1 drop=0 speed=5.85x    frame= 7588 fps=141 q=32.0 size=   13880kB time=00:05:16.65 bitrate= 359.1kbits/s dup=1 drop=0 speed=5.88x    frame= 7675 fps=141 q=32.0 size=   13985kB time=00:05:20.27 bitrate= 357.7kbits/s dup=1 drop=0 speed=5.89x    frame= 7772 fps=142 q=32.0 size=   14159kB time=00:05:24.28 bitrate= 357.7kbits/s dup=1 drop=0 speed=5.91x    frame= 7878 fps=142 q=32.0 size=   14271kB time=00:05:28.72 bitrate= 355.6kbits/s dup=1 drop=0 speed=5.93x    frame= 7984 fps=143 q=32.0 size=   14404kB time=00:05:33.16 bitrate= 354.2kbits/s dup=1 drop=0 speed=5.96x    frame= 8093 fps=143 q=32.0 size=   14493kB time=00:05:37.68 bitrate= 351.6kbits/s dup=1 drop=0 speed=5.99x    frame= 8192 fps=144 q=32.0 size=   14614kB time=00:05:41.82 bitrate= 350.2kbits/s dup=1 drop=0 speed=6.01x    frame= 8245 fps=144 q=32.0 size=   14699kB time=00:05:44.04 bitrate= 350.0kbits/s dup=1 drop=0 speed=5.99x    frame= 8310 fps=143 q=32.0 size=   14808kB time=00:05:46.73 bitrate= 349.9kbits/s dup=1 drop=0 speed=5.99x    frame= 8403 fps=144 q=32.0 size=   14917kB time=00:05:50.65 bitrate= 348.5kbits/s dup=1 drop=0 speed=   6x    frame= 8493 fps=144 q=32.0 size=   14994kB time=00:05:54.36 bitrate= 346.6kbits/s dup=1 drop=0 speed=6.02x    frame= 8568 fps=144 q=32.0 size=   15080kB time=00:05:57.52 bitrate= 345.5kbits/s dup=1 drop=0 speed=6.02x    frame= 8620 fps=144 q=32.0 size=   15181kB time=00:05:59.70 bitrate= 345.7kbits/s dup=1 drop=0 speed=   6x    frame= 8674 fps=144 q=32.0 size=   15270kB time=00:06:01.96 bitrate= 345.6kbits/s dup=1 drop=0 speed=5.99x    frame= 8735 fps=143 q=32.0 size=   15363kB time=00:06:04.48 bitrate= 345.3kbits/s dup=1 drop=0 speed=5.98x    frame= 8815 fps=143 q=32.0 size=   15489kB time=00:06:07.80 bitrate= 345.0kbits/s dup=1 drop=0 speed=5.98x    frame= 8907 fps=144 q=32.0 size=   15566kB time=00:06:11.64 bitrate= 343.1kbits/s dup=1 drop=0 speed=   6x    frame= 8974 fps=144 q=32.0 size=   15686kB time=00:06:14.46 bitrate= 343.2kbits/s dup=1 drop=0 speed=5.99x    frame= 9050 fps=144 q=32.0 size=   15762kB time=00:06:17.62 bitrate= 341.9kbits/s dup=1 drop=0 speed=   6x    frame= 9128 fps=144 q=32.0 size=   15831kB time=00:06:20.86 bitrate= 340.5kbits/s dup=1 drop=0 speed=   6x    frame= 9211 fps=144 q=32.0 size=   15893kB time=00:06:24.32 bitrate= 338.8kbits/s dup=1 drop=0 speed=6.01x    frame= 9293 fps=144 q=32.0 size=   15963kB time=00:06:27.73 bitrate= 337.3kbits/s dup=1 drop=0 speed=6.01x    frame= 9389 fps=144 q=32.0 size=   16050kB time=00:06:31.74 bitrate= 335.6kbits/s dup=1 drop=0 speed=6.03x    frame= 9530 fps=146 q=32.0 size=   16152kB time=00:06:37.67 bitrate= 332.7kbits/s dup=1 drop=0 speed=6.07x    frame= 9662 fps=146 q=32.0 size=   16246kB time=00:06:43.13 bitrate= 330.1kbits/s dup=1 drop=0 speed=6.11x    frame= 9750 fps=147 q=32.0 size=   16343kB time=00:06:46.80 bitrate= 329.1kbits/s dup=1 drop=0 speed=6.12x    frame= 9827 fps=147 q=32.0 size=   16421kB time=00:06:50.00 bitrate= 328.1kbits/s dup=1 drop=0 speed=6.12x    frame= 9877 fps=146 q=32.0 size=   16550kB time=00:06:52.09 bitrate= 329.0kbits/s dup=1 drop=0 speed= 6.1x    frame= 9938 fps=146 q=32.0 size=   16705kB time=00:06:54.65 bitrate= 330.0kbits/s dup=1 drop=0 speed=6.09x    frame=10030 fps=146 q=32.0 size=   16883kB time=00:06:58.49 bitrate= 330.5kbits/s dup=1 drop=0 speed= 6.1x    frame=10142 fps=147 q=32.0 size=   16980kB time=00:07:03.14 bitrate= 328.7kbits/s dup=1 drop=0 speed=6.13x    frame=10227 fps=147 q=32.0 size=   17112kB time=00:07:06.73 bitrate= 328.5kbits/s dup=1 drop=0 speed=6.13x    frame=10287 fps=147 q=32.0 size=   17213kB time=00:07:09.20 bitrate= 328.5kbits/s dup=1 drop=0 speed=6.12x    frame=10347 fps=147 q=32.0 size=   17318kB time=00:07:11.72 bitrate= 328.6kbits/s dup=1 drop=0 speed=6.12x    frame=10430 fps=147 q=32.0 size=   17456kB time=00:07:15.17 bitrate= 328.6kbits/s dup=1 drop=0 speed=6.12x    frame=10511 fps=147 q=32.0 size=   17585kB time=00:07:18.55 bitrate= 328.5kbits/s dup=1 drop=0 speed=6.13x    frame=10596 fps=147 q=32.0 size=   17714kB time=00:07:22.09 bitrate= 328.2kbits/s dup=1 drop=0 speed=6.13x    frame=10720 fps=148 q=32.0 size=   17838kB time=00:07:27.25 bitrate= 326.7kbits/s dup=1 drop=0 speed=6.16x    frame=10829 fps=148 q=32.0 size=   17978kB time=00:07:31.81 bitrate= 326.0kbits/s dup=1 drop=0 speed=6.18x    frame=10902 fps=148 q=32.0 size=   18096kB time=00:07:34.84 bitrate= 325.9kbits/s dup=1 drop=0 speed=6.18x    frame=10961 fps=148 q=32.0 size=   18176kB time=00:07:37.32 bitrate= 325.6kbits/s dup=1 drop=0 speed=6.17x    frame=11015 fps=148 q=32.0 size=   18311kB time=00:07:39.58 bitrate= 326.4kbits/s dup=1 drop=0 speed=6.16x    frame=11078 fps=147 q=32.0 size=   18465kB time=00:07:42.23 bitrate= 327.3kbits/s dup=1 drop=0 speed=6.15x    frame=11186 fps=148 q=32.0 size=   18585kB time=00:07:46.71 bitrate= 326.2kbits/s dup=1 drop=0 speed=6.17x    frame=11279 fps=148 q=32.0 size=   18732kB time=00:07:50.63 bitrate= 326.0kbits/s dup=1 drop=0 speed=6.18x    frame=11354 fps=148 q=32.0 size=   18876kB time=00:07:53.70 bitrate= 326.4kbits/s dup=1 drop=0 speed=6.18x    frame=11411 fps=148 q=32.0 size=   18983kB time=00:07:56.09 bitrate= 326.6kbits/s dup=1 drop=0 speed=6.17x    frame=11485 fps=148 q=32.0 size=   19089kB time=00:07:59.16 bitrate= 326.4kbits/s dup=1 drop=0 speed=6.17x    frame=11552 fps=148 q=29.0 size=   19132kB time=00:08:01.98 bitrate= 325.2kbits/s dup=1 drop=0 speed=6.17x    frame=11606 fps=148 q=32.0 size=   19226kB time=00:08:04.20 bitrate= 325.3kbits/s dup=1 drop=0 speed=6.15x    frame=11661 fps=147 q=32.0 size=   19297kB time=00:08:06.50 bitrate= 324.9kbits/s dup=1 drop=0 speed=6.14x    frame=11729 fps=147 q=32.0 size=   19375kB time=00:08:09.36 bitrate= 324.3kbits/s dup=1 drop=0 speed=6.14x    frame=11820 fps=147 q=32.0 size=   19456kB time=00:08:13.16 bitrate= 323.2kbits/s dup=1 drop=0 speed=6.15x    frame=11897 fps=147 q=32.0 size=   19548kB time=00:08:16.36 bitrate= 322.6kbits/s dup=1 drop=0 speed=6.15x    frame=11949 fps=147 q=32.0 size=   19643kB time=00:08:18.53 bitrate= 322.8kbits/s dup=1 drop=0 speed=6.14x    frame=12012 fps=147 q=32.0 size=   19763kB time=00:08:21.14 bitrate= 323.1kbits/s dup=1 drop=0 speed=6.13x    frame=12079 fps=147 q=32.0 size=   19873kB time=00:08:23.95 bitrate= 323.0kbits/s dup=1 drop=0 speed=6.13x    frame=12139 fps=147 q=32.0 size=   19986kB time=00:08:26.43 bitrate= 323.3kbits/s dup=1 drop=0 speed=6.12x    frame=12194 fps=147 q=32.0 size=   20070kB time=00:08:28.73 bitrate= 323.2kbits/s dup=1 drop=0 speed=6.11x    frame=12254 fps=146 q=32.0 size=   20193kB time=00:08:31.25 bitrate= 323.6kbits/s dup=1 drop=0 speed=6.11x    frame=12310 fps=146 q=32.0 size=   20293kB time=00:08:33.60 bitrate= 323.7kbits/s dup=1 drop=0 speed= 6.1x    frame=12397 fps=146 q=32.0 size=   20386kB time=00:08:37.22 bitrate= 322.9kbits/s dup=1 drop=0 speed= 6.1x    frame=12463 fps=146 q=32.0 size=   20521kB time=00:08:39.95 bitrate= 323.3kbits/s dup=1 drop=0 speed= 6.1x    frame=12523 fps=146 q=32.0 size=   20670kB time=00:08:42.47 bitrate= 324.1kbits/s dup=1 drop=0 speed=6.09x    frame=12595 fps=146 q=32.0 size=   20844kB time=00:08:45.46 bitrate= 325.0kbits/s dup=1 drop=0 speed=6.09x    frame=12664 fps=146 q=32.0 size=   20987kB time=00:08:48.36 bitrate= 325.4kbits/s dup=1 drop=0 speed=6.09x    frame=12745 fps=146 q=32.0 size=   21135kB time=00:08:51.73 bitrate= 325.6kbits/s dup=1 drop=0 speed= 6.1x    frame=12860 fps=147 q=32.0 size=   21239kB time=00:08:56.51 bitrate= 324.3kbits/s dup=1 drop=0 speed=6.12x    frame=12968 fps=147 q=32.0 size=   21374kB time=00:09:01.03 bitrate= 323.6kbits/s dup=1 drop=0 speed=6.13x    frame=13069 fps=147 q=32.0 size=   21482kB time=00:09:05.25 bitrate= 322.7kbits/s dup=1 drop=0 speed=6.14x    frame=13140 fps=147 q=32.0 size=   21607kB time=00:09:08.20 bitrate= 322.9kbits/s dup=1 drop=0 speed=6.14x    frame=13234 fps=147 q=32.0 size=   21734kB time=00:09:12.12 bitrate= 322.5kbits/s dup=1 drop=0 speed=6.15x    frame=13329 fps=148 q=32.0 size=   21878kB time=00:09:16.05 bitrate= 322.3kbits/s dup=1 drop=0 speed=6.16x    frame=13422 fps=148 q=32.0 size=   21972kB time=00:09:19.97 bitrate= 321.4kbits/s dup=1 drop=0 speed=6.17x    frame=13493 fps=148 q=32.0 size=   22080kB time=00:09:22.92 bitrate= 321.3kbits/s dup=1 drop=0 speed=6.17x    frame=13558 fps=148 q=32.0 size=   22170kB time=00:09:25.61 bitrate= 321.1kbits/s dup=1 drop=0 speed=6.16x    frame=13630 fps=148 q=32.0 size=   22302kB time=00:09:28.64 bitrate= 321.3kbits/s dup=1 drop=0 speed=6.16x    frame=13706 fps=148 q=32.0 size=   22412kB time=00:09:31.84 bitrate= 321.1kbits/s dup=1 drop=0 speed=6.16x    frame=13756 fps=147 q=32.0 size=   22496kB time=00:09:33.88 bitrate= 321.1kbits/s dup=1 drop=0 speed=6.15x    frame=13810 fps=147 q=32.0 size=   22588kB time=00:09:36.15 bitrate= 321.2kbits/s dup=1 drop=0 speed=6.14x    frame=13888 fps=147 q=32.0 size=   22698kB time=00:09:39.39 bitrate= 320.9kbits/s dup=1 drop=0 speed=6.14x    frame=13958 fps=147 q=32.0 size=   22774kB time=00:09:42.33 bitrate= 320.4kbits/s dup=1 drop=0 speed=6.14x    frame=14035 fps=147 q=32.0 size=   22904kB time=00:09:45.53 bitrate= 320.4kbits/s dup=1 drop=0 speed=6.14x    frame=14127 fps=147 q=32.0 size=   23020kB time=00:09:49.37 bitrate= 320.0kbits/s dup=1 drop=0 speed=6.15x    frame=14211 fps=148 q=32.0 size=   23108kB time=00:09:52.87 bitrate= 319.3kbits/s dup=1 drop=0 speed=6.16x    frame=14262 fps=147 q=32.0 size=   23220kB time=00:09:55.00 bitrate= 319.7kbits/s dup=1 drop=0 speed=6.14x    frame=14315 fps=147 q=32.0 size=   23323kB time=00:09:57.22 bitrate= 319.9kbits/s dup=1 drop=0 speed=6.13x    frame=14367 fps=147 q=32.0 size=   23440kB time=00:09:59.36 bitrate= 320.4kbits/s dup=1 drop=0 speed=6.12x    frame=14421 fps=147 q=32.0 size=   23553kB time=00:10:01.62 bitrate= 320.7kbits/s dup=1 drop=0 speed=6.12x    frame=14497 fps=147 q=32.0 size=   23662kB time=00:10:04.77 bitrate= 320.5kbits/s dup=1 drop=0 speed=6.12x    frame=14566 fps=147 q=32.0 size=   23796kB time=00:10:07.68 bitrate= 320.8kbits/s dup=1 drop=0 speed=6.11x    frame=14673 fps=147 q=32.0 size=   23914kB time=00:10:12.16 bitrate= 320.0kbits/s dup=1 drop=0 speed=6.13x    frame=14765 fps=147 q=32.0 size=   24033kB time=00:10:15.95 bitrate= 319.6kbits/s dup=1 drop=0 speed=6.13x    frame=14859 fps=147 q=32.0 size=   24202kB time=00:10:19.88 bitrate= 319.8kbits/s dup=1 drop=0 speed=6.14x    frame=14925 fps=147 q=32.0 size=   24334kB time=00:10:22.65 bitrate= 320.2kbits/s dup=1 drop=0 speed=6.14x    frame=15000 fps=147 q=32.0 size=   24443kB time=00:10:25.77 bitrate= 320.0kbits/s dup=1 drop=0 speed=6.14x    frame=15066 fps=147 q=32.0 size=   24626kB time=00:10:28.54 bitrate= 321.0kbits/s dup=1 drop=0 speed=6.13x    frame=15136 fps=147 q=32.0 size=   24761kB time=00:10:31.44 bitrate= 321.2kbits/s dup=1 drop=0 speed=6.13x    frame=15220 fps=147 q=32.0 size=   24888kB time=00:10:34.98 bitrate= 321.1kbits/s dup=1 drop=0 speed=6.14x    frame=15298 fps=147 q=32.0 size=   25017kB time=00:10:38.18 bitrate= 321.1kbits/s dup=1 drop=0 speed=6.14x    frame=15389 fps=147 q=32.0 size=   25118kB time=00:10:41.98 bitrate= 320.5kbits/s dup=1 drop=0 speed=6.14x    frame=15455 fps=147 q=32.0 size=   25270kB time=00:10:44.75 bitrate= 321.1kbits/s dup=1 drop=0 speed=6.14x    frame=15546 fps=147 q=32.0 size=   25396kB time=00:10:48.55 bitrate= 320.8kbits/s dup=1 drop=0 speed=6.15x    frame=15653 fps=148 q=32.0 size=   25533kB time=00:10:53.03 bitrate= 320.3kbits/s dup=1 drop=0 speed=6.16x    frame=15748 fps=148 q=32.0 size=   25690kB time=00:10:56.96 bitrate= 320.3kbits/s dup=1 drop=0 speed=6.17x    frame=15832 fps=148 q=32.0 size=   25803kB time=00:11:00.45 bitrate= 320.0kbits/s dup=1 drop=0 speed=6.17x    frame=15897 fps=148 q=32.0 size=   25901kB time=00:11:03.19 bitrate= 319.9kbits/s dup=1 drop=0 speed=6.17x    frame=15954 fps=148 q=32.0 size=   25984kB time=00:11:05.57 bitrate= 319.8kbits/s dup=1 drop=0 speed=6.16x    frame=16020 fps=148 q=32.0 size=   26077kB time=00:11:08.31 bitrate= 319.6kbits/s dup=1 drop=0 speed=6.15x    frame=16087 fps=147 q=32.0 size=   26219kB time=00:11:11.12 bitrate= 320.0kbits/s dup=1 drop=0 speed=6.15x    frame=16168 fps=147 q=32.0 size=   26372kB time=00:11:14.49 bitrate= 320.3kbits/s dup=1 drop=0 speed=6.15x    frame=16251 fps=148 q=32.0 size=   26512kB time=00:11:17.99 bitrate= 320.3kbits/s dup=1 drop=0 speed=6.16x    frame=16337 fps=148 q=32.0 size=   26639kB time=00:11:21.53 bitrate= 320.2kbits/s dup=1 drop=0 speed=6.16x    frame=16425 fps=148 q=32.0 size=   26773kB time=00:11:25.20 bitrate= 320.1kbits/s dup=1 drop=0 speed=6.17x    frame=16489 fps=148 q=32.0 size=   26901kB time=00:11:27.89 bitrate= 320.4kbits/s dup=1 drop=0 speed=6.16x    frame=16566 fps=148 q=32.0 size=   27064kB time=00:11:31.09 bitrate= 320.8kbits/s dup=1 drop=0 speed=6.16x    frame=16655 fps=148 q=32.0 size=   27179kB time=00:11:34.80 bitrate= 320.4kbits/s dup=1 drop=0 speed=6.17x    frame=16766 fps=148 q=32.0 size=   27302kB time=00:11:39.41 bitrate= 319.8kbits/s dup=1 drop=0 speed=6.18x    frame=16858 fps=148 q=32.0 size=   27411kB time=00:11:43.25 bitrate= 319.3kbits/s dup=1 drop=0 speed=6.19x    frame=16909 fps=148 q=32.0 size=   27500kB time=00:11:45.38 bitrate= 319.4kbits/s dup=1 drop=0 speed=6.18x    frame=16960 fps=148 q=32.0 size=   27588kB time=00:11:47.52 bitrate= 319.4kbits/s dup=1 drop=0 speed=6.17x    frame=17013 fps=148 q=32.0 size=   27670kB time=00:11:49.73 bitrate= 319.4kbits/s dup=1 drop=0 speed=6.16x    frame=17083 fps=148 q=32.0 size=   27758kB time=00:11:52.64 bitrate= 319.1kbits/s dup=1 drop=0 speed=6.16x    frame=17156 fps=148 q=32.0 size=   27831kB time=00:11:55.71 bitrate= 318.6kbits/s dup=1 drop=0 speed=6.16x    frame=17230 fps=148 q=32.0 size=   27897kB time=00:11:58.78 bitrate= 317.9kbits/s dup=1 drop=0 speed=6.16x    frame=17298 fps=148 q=32.0 size=   27997kB time=00:12:01.64 bitrate= 317.8kbits/s dup=1 drop=0 speed=6.16x    frame=17356 fps=148 q=32.0 size=   28059kB time=00:12:04.07 bitrate= 317.4kbits/s dup=1 drop=0 speed=6.15x    frame=17430 fps=148 q=32.0 size=   28178kB time=00:12:07.10 bitrate= 317.5kbits/s dup=1 drop=0 speed=6.15x    frame=17495 fps=147 q=32.0 size=   28260kB time=00:12:09.83 bitrate= 317.2kbits/s dup=1 drop=0 speed=6.15x    frame=17558 fps=147 q=32.0 size=   28338kB time=00:12:12.48 bitrate= 316.9kbits/s dup=1 drop=0 speed=6.14x    frame=17617 fps=147 q=32.0 size=   28444kB time=00:12:14.91 bitrate= 317.1kbits/s dup=1 drop=0 speed=6.14x    frame=17702 fps=147 q=32.0 size=   28551kB time=00:12:18.49 bitrate= 316.7kbits/s dup=1 drop=0 speed=6.14x    frame=17767 fps=147 q=32.0 size=   28653kB time=00:12:21.18 bitrate= 316.7kbits/s dup=1 drop=0 speed=6.14x    frame=17835 fps=147 q=32.0 size=   28751kB time=00:12:24.04 bitrate= 316.6kbits/s dup=1 drop=0 speed=6.14x    frame=17895 fps=147 q=32.0 size=   28894kB time=00:12:26.51 bitrate= 317.1kbits/s dup=1 drop=0 speed=6.13x    frame=17973 fps=147 q=32.0 size=   29037kB time=00:12:29.80 bitrate= 317.2kbits/s dup=1 drop=0 speed=6.13x    frame=18037 fps=147 q=32.0 size=   29172kB time=00:12:32.44 bitrate= 317.6kbits/s dup=1 drop=0 speed=6.13x    frame=18120 fps=147 q=32.0 size=   29309kB time=00:12:35.90 bitrate= 317.6kbits/s dup=1 drop=0 speed=6.13x    frame=18234 fps=147 q=32.0 size=   29413kB time=00:12:40.68 bitrate= 316.8kbits/s dup=1 drop=0 speed=6.15x    frame=18345 fps=148 q=32.0 size=   29535kB time=00:12:45.29 bitrate= 316.2kbits/s dup=1 drop=0 speed=6.16x    frame=18413 fps=148 q=32.0 size=   29693kB time=00:12:48.15 bitrate= 316.7kbits/s dup=1 drop=0 speed=6.15x    frame=18480 fps=147 q=32.0 size=   29819kB time=00:12:50.92 bitrate= 316.9kbits/s dup=1 drop=0 speed=6.15x    frame=18535 fps=147 q=32.0 size=   29978kB time=00:12:53.22 bitrate= 317.6kbits/s dup=1 drop=0 speed=6.15x    frame=18620 fps=147 q=32.0 size=   30107kB time=00:12:56.76 bitrate= 317.5kbits/s dup=1 drop=0 speed=6.15x    frame=18715 fps=148 q=32.0 size=   30233kB time=00:13:00.73 bitrate= 317.2kbits/s dup=1 drop=0 speed=6.16x    frame=18809 fps=148 q=32.0 size=   30298kB time=00:13:04.66 bitrate= 316.3kbits/s dup=1 drop=0 speed=6.16x    frame=18870 fps=148 q=32.0 size=   30404kB time=00:13:07.17 bitrate= 316.4kbits/s dup=1 drop=0 speed=6.16x    frame=18927 fps=147 q=32.0 size=   30501kB time=00:13:09.56 bitrate= 316.5kbits/s dup=1 drop=0 speed=6.15x    frame=18994 fps=147 q=32.0 size=   30636kB time=00:13:12.34 bitrate= 316.7kbits/s dup=1 drop=0 speed=6.15x    frame=19041 fps=147 q=32.0 size=   30752kB time=00:13:14.34 bitrate= 317.1kbits/s dup=1 drop=0 speed=6.14x    frame=19129 fps=147 q=32.0 size=   30840kB time=00:13:18.01 bitrate= 316.6kbits/s dup=1 drop=0 speed=6.15x    frame=19180 fps=147 q=32.0 size=   30955kB time=00:13:20.15 bitrate= 316.9kbits/s dup=1 drop=0 speed=6.14x    frame=19233 fps=147 q=32.0 size=   31048kB time=00:13:22.32 bitrate= 317.0kbits/s dup=1 drop=0 speed=6.13x    frame=19298 fps=147 q=32.0 size=   31152kB time=00:13:25.05 bitrate= 317.0kbits/s dup=1 drop=0 speed=6.13x    frame=19360 fps=147 q=32.0 size=   31241kB time=00:13:27.61 bitrate= 316.9kbits/s dup=1 drop=0 speed=6.12x    frame=19418 fps=147 q=32.0 size=   31327kB time=00:13:30.04 bitrate= 316.8kbits/s dup=1 drop=0 speed=6.12x    frame=19497 fps=147 q=32.0 size=   31437kB time=00:13:33.33 bitrate= 316.6kbits/s dup=1 drop=0 speed=6.12x    frame=19553 fps=147 q=32.0 size=   31530kB time=00:13:35.68 bitrate= 316.7kbits/s dup=1 drop=0 speed=6.11x    frame=19604 fps=146 q=32.0 size=   31608kB time=00:13:37.81 bitrate= 316.6kbits/s dup=1 drop=0 speed=6.11x    frame=19666 fps=146 q=32.0 size=   31725kB time=00:13:40.37 bitrate= 316.8kbits/s dup=1 drop=0 speed= 6.1x    frame=19771 fps=146 q=32.0 size=   31811kB time=00:13:44.76 bitrate= 316.0kbits/s dup=1 drop=0 speed=6.11x    frame=19852 fps=147 q=32.0 size=   31874kB time=00:13:48.13 bitrate= 315.3kbits/s dup=1 drop=0 speed=6.11x    frame=19944 fps=147 q=32.0 size=   31932kB time=00:13:51.97 bitrate= 314.4kbits/s dup=1 drop=0 speed=6.12x    frame=20046 fps=147 q=32.0 size=   32028kB time=00:13:56.24 bitrate= 313.7kbits/s dup=1 drop=0 speed=6.13x    frame=20138 fps=147 q=32.0 size=   32109kB time=00:14:00.08 bitrate= 313.1kbits/s dup=1 drop=0 speed=6.13x    frame=20273 fps=147 q=32.0 size=   32199kB time=00:14:05.71 bitrate= 311.9kbits/s dup=1 drop=0 speed=6.15x    frame=20364 fps=148 q=32.0 size=   32273kB time=00:14:09.51 bitrate= 311.2kbits/s dup=1 drop=0 speed=6.16x    frame=20453 fps=148 q=32.0 size=   32397kB time=00:14:13.22 bitrate= 311.0kbits/s dup=1 drop=0 speed=6.16x    frame=20555 fps=148 q=32.0 size=   32472kB time=00:14:17.45 bitrate= 310.2kbits/s dup=1 drop=0 speed=6.17x    frame=20608 fps=148 q=32.0 size=   32606kB time=00:14:19.67 bitrate= 310.7kbits/s dup=1 drop=0 speed=6.16x    frame=20657 fps=148 q=32.0 size=   32711kB time=00:14:21.71 bitrate= 311.0kbits/s dup=1 drop=0 speed=6.15x    frame=20711 fps=147 q=29.0 size=   32816kB time=00:14:23.97 bitrate= 311.2kbits/s dup=1 drop=0 speed=6.15x    frame=20796 fps=147 q=32.0 size=   32902kB time=00:14:27.52 bitrate= 310.7kbits/s dup=1 drop=0 speed=6.15x    frame=20871 fps=147 q=32.0 size=   32969kB time=00:14:30.63 bitrate= 310.2kbits/s dup=1 drop=0 speed=6.15x    frame=20950 fps=148 q=32.0 size=   33030kB time=00:14:33.96 bitrate= 309.6kbits/s dup=1 drop=0 speed=6.15x    frame=21030 fps=148 q=32.0 size=   33103kB time=00:14:37.29 bitrate= 309.1kbits/s dup=1 drop=0 speed=6.15x    frame=21101 fps=148 q=32.0 size=   33185kB time=00:14:40.23 bitrate= 308.8kbits/s dup=1 drop=0 speed=6.15x    frame=21168 fps=147 q=32.0 size=   33250kB time=00:14:43.05 bitrate= 308.5kbits/s dup=1 drop=0 speed=6.15x    frame=21239 fps=147 q=32.0 size=   33314kB time=00:14:45.99 bitrate= 308.0kbits/s dup=1 drop=0 speed=6.15x    frame=21303 fps=147 q=32.0 size=   33393kB time=00:14:48.68 bitrate= 307.8kbits/s dup=1 drop=0 speed=6.15x    frame=21371 fps=147 q=32.0 size=   33476kB time=00:14:51.49 bitrate= 307.6kbits/s dup=1 drop=0 speed=6.15x    frame=21486 fps=148 q=32.0 size=   33578kB time=00:14:56.32 bitrate= 306.9kbits/s dup=1 drop=0 speed=6.16x    frame=21564 fps=148 q=32.0 size=   33686kB time=00:14:59.56 bitrate= 306.8kbits/s dup=1 drop=0 speed=6.16x    frame=21629 fps=148 q=32.0 size=   33763kB time=00:15:02.29 bitrate= 306.5kbits/s dup=1 drop=0 speed=6.16x    frame=21696 fps=147 q=29.0 size=   33844kB time=00:15:05.06 bitrate= 306.3kbits/s dup=1 drop=0 speed=6.15x    frame=21757 fps=147 q=32.0 size=   33982kB time=00:15:07.62 bitrate= 306.7kbits/s dup=1 drop=0 speed=6.15x    frame=21814 fps=147 q=32.0 size=   34079kB time=00:15:09.97 bitrate= 306.8kbits/s dup=1 drop=0 speed=6.14x    frame=21875 fps=147 q=32.0 size=   34182kB time=00:15:12.53 bitrate= 306.9kbits/s dup=1 drop=0 speed=6.14x    frame=21935 fps=147 q=32.0 size=   34282kB time=00:15:15.00 bitrate= 306.9kbits/s dup=1 drop=0 speed=6.14x    frame=22015 fps=147 q=32.0 size=   34447kB time=00:15:18.37 bitrate= 307.3kbits/s dup=1 drop=0 speed=6.14x    frame=22107 fps=147 q=32.0 size=   34568kB time=00:15:22.17 bitrate= 307.1kbits/s dup=1 drop=0 speed=6.14x    frame=22175 fps=147 q=32.0 size=   34651kB time=00:15:25.03 bitrate= 306.9kbits/s dup=1 drop=0 speed=6.14x    frame=22240 fps=147 q=32.0 size=   34762kB time=00:15:27.72 bitrate= 307.0kbits/s dup=1 drop=0 speed=6.14x    frame=22298 fps=147 q=32.0 size=   34856kB time=00:15:30.15 bitrate= 307.0kbits/s dup=1 drop=0 speed=6.13x    frame=22362 fps=147 q=32.0 size=   34995kB time=00:15:32.84 bitrate= 307.3kbits/s dup=1 drop=0 speed=6.13x    frame=22421 fps=147 q=32.0 size=   35119kB time=00:15:35.31 bitrate= 307.6kbits/s dup=1 drop=0 speed=6.13x    frame=22482 fps=147 q=32.0 size=   35232kB time=00:15:37.83 bitrate= 307.7kbits/s dup=1 drop=0 speed=6.12x    frame=22547 fps=147 q=32.0 size=   35347kB time=00:15:40.56 bitrate= 307.9kbits/s dup=1 drop=0 speed=6.12x    frame=22607 fps=147 q=32.0 size=   35434kB time=00:15:43.04 bitrate= 307.8kbits/s dup=1 drop=0 speed=6.11x    frame=22673 fps=146 q=32.0 size=   35521kB time=00:15:45.81 bitrate= 307.7kbits/s dup=1 drop=0 speed=6.11x    frame=22759 fps=147 q=32.0 size=   35643kB time=00:15:49.39 bitrate= 307.5kbits/s dup=1 drop=0 speed=6.11x    frame=22848 fps=147 q=32.0 size=   35753kB time=00:15:53.15 bitrate= 307.3kbits/s dup=1 drop=0 speed=6.12x    frame=22940 fps=147 q=32.0 size=   35857kB time=00:15:56.99 bitrate= 306.9kbits/s dup=1 drop=0 speed=6.12x    frame=23017 fps=147 q=32.0 size=   35927kB time=00:16:00.15 bitrate= 306.5kbits/s dup=1 drop=0 speed=6.12x    frame=23152 fps=147 q=32.0 size=   36011kB time=00:16:05.78 bitrate= 305.5kbits/s dup=1 drop=0 speed=6.14x    frame=23238 fps=147 q=32.0 size=   36101kB time=00:16:09.36 bitrate= 305.1kbits/s dup=1 drop=0 speed=6.14x    frame=23323 fps=147 q=32.0 size=   36178kB time=00:16:12.90 bitrate= 304.6kbits/s dup=1 drop=0 speed=6.14x    frame=23380 fps=147 q=32.0 size=   36291kB time=00:16:15.29 bitrate= 304.8kbits/s dup=1 drop=0 speed=6.14x    frame=23472 fps=147 q=32.0 size=   36398kB time=00:16:19.13 bitrate= 304.5kbits/s dup=1 drop=0 speed=6.14x    frame=23559 fps=147 q=32.0 size=   36487kB time=00:16:22.76 bitrate= 304.1kbits/s dup=1 drop=0 speed=6.15x    frame=23635 fps=147 q=32.0 size=   36586kB time=00:16:25.92 bitrate= 304.0kbits/s dup=1 drop=0 speed=6.15x    frame=23699 fps=147 q=32.0 size=   36662kB time=00:16:28.60 bitrate= 303.8kbits/s dup=1 drop=0 speed=6.14x    frame=23771 fps=147 q=32.0 size=   36788kB time=00:16:31.59 bitrate= 303.9kbits/s dup=1 drop=0 speed=6.14x    frame=23884 fps=148 q=32.0 size=   36912kB time=00:16:36.33 bitrate= 303.5kbits/s dup=1 drop=0 speed=6.15x    frame=23969 fps=148 q=32.0 size=   37011kB time=00:16:39.87 bitrate= 303.2kbits/s dup=1 drop=0 speed=6.16x    frame=24020 fps=147 q=32.0 size=   37172kB time=00:16:42.00 bitrate= 303.9kbits/s dup=1 drop=0 speed=6.15x    frame=24095 fps=147 q=32.0 size=   37296kB time=00:16:45.12 bitrate= 304.0kbits/s dup=1 drop=0 speed=6.15x    frame=24146 fps=147 q=32.0 size=   37398kB time=00:16:47.25 bitrate= 304.2kbits/s dup=1 drop=0 speed=6.14x    frame=24211 fps=147 q=32.0 size=   37518kB time=00:16:49.98 bitrate= 304.3kbits/s dup=1 drop=0 speed=6.14x    frame=24298 fps=147 q=32.0 size=   37606kB time=00:16:53.56 bitrate= 303.9kbits/s dup=1 drop=0 speed=6.15x    frame=24410 fps=148 q=32.0 size=   37695kB time=00:16:58.26 bitrate= 303.3kbits/s dup=1 drop=0 speed=6.16x    frame=24519 fps=148 q=32.0 size=   37820kB time=00:17:02.82 bitrate= 302.9kbits/s dup=1 drop=0 speed=6.16x    frame=24624 fps=148 q=32.0 size=   37905kB time=00:17:07.17 bitrate= 302.3kbits/s dup=1 drop=0 speed=6.17x    frame=24699 fps=148 q=32.0 size=   37993kB time=00:17:10.33 bitrate= 302.1kbits/s dup=1 drop=0 speed=6.17x    frame=24775 fps=148 q=32.0 size=   38131kB time=00:17:13.49 bitrate= 302.2kbits/s dup=1 drop=0 speed=6.17x    frame=24881 fps=148 q=32.0 size=   38261kB time=00:17:17.88 bitrate= 302.0kbits/s dup=1 drop=0 speed=6.18x    frame=24990 fps=148 q=32.0 size=   38396kB time=00:17:22.45 bitrate= 301.7kbits/s dup=1 drop=0 speed=6.19x    frame=25075 fps=148 q=32.0 size=   38512kB time=00:17:25.99 bitrate= 301.6kbits/s dup=1 drop=0 speed=6.19x    frame=25138 fps=148 q=32.0 size=   38608kB time=00:17:28.64 bitrate= 301.6kbits/s dup=1 drop=0 speed=6.19x    frame=25223 fps=148 q=32.0 size=   38704kB time=00:17:32.13 bitrate= 301.3kbits/s dup=1 drop=0 speed=6.19x    frame=25312 fps=148 q=32.0 size=   38801kB time=00:17:35.89 bitrate= 301.0kbits/s dup=1 drop=0 speed=6.19x    frame=25362 fps=148 q=32.0 size=   38895kB time=00:17:37.98 bitrate= 301.2kbits/s dup=1 drop=0 speed=6.19x    frame=25417 fps=148 q=32.0 size=   38988kB time=00:17:40.24 bitrate= 301.2kbits/s dup=1 drop=0 speed=6.18x    frame=25496 fps=148 q=32.0 size=   39104kB time=00:17:43.57 bitrate= 301.2kbits/s dup=1 drop=0 speed=6.18x    frame=25589 fps=148 q=32.0 size=   39233kB time=00:17:47.41 bitrate= 301.1kbits/s dup=1 drop=0 speed=6.19x    frame=25675 fps=148 q=32.0 size=   39322kB time=00:17:51.04 bitrate= 300.8kbits/s dup=1 drop=0 speed=6.19x    frame=25721 fps=148 q=32.0 size=   39420kB time=00:17:52.96 bitrate= 301.0kbits/s dup=1 drop=0 speed=6.18x    frame=25766 fps=148 q=32.0 size=   39517kB time=00:17:54.79 bitrate= 301.2kbits/s dup=1 drop=0 speed=6.18x    frame=25823 fps=148 q=32.0 size=   39649kB time=00:17:57.18 bitrate= 301.5kbits/s dup=1 drop=0 speed=6.17x    frame=25913 fps=148 q=32.0 size=   39721kB time=00:18:00.93 bitrate= 301.0kbits/s dup=1 drop=0 speed=6.18x    frame=25976 fps=148 q=32.0 size=   39804kB time=00:18:03.58 bitrate= 300.9kbits/s dup=1 drop=0 speed=6.17x    frame=26032 fps=148 q=32.0 size=   39867kB time=00:18:05.88 bitrate= 300.8kbits/s dup=1 drop=0 speed=6.17x    frame=26086 fps=148 q=32.0 size=   39937kB time=00:18:08.15 bitrate= 300.7kbits/s dup=1 drop=0 speed=6.16x    frame=26144 fps=148 q=32.0 size=   40010kB time=00:18:10.58 bitrate= 300.5kbits/s dup=1 drop=0 speed=6.16x    frame=26232 fps=148 q=32.0 size=   40130kB time=00:18:14.25 bitrate= 300.4kbits/s dup=1 drop=0 speed=6.16x    frame=26303 fps=148 q=32.0 size=   40229kB time=00:18:17.19 bitrate= 300.4kbits/s dup=1 drop=0 speed=6.16x    frame=26355 fps=148 q=32.0 size=   40328kB time=00:18:19.37 bitrate= 300.5kbits/s dup=1 drop=0 speed=6.16x    frame=26408 fps=147 q=32.0 size=   40419kB time=00:18:21.59 bitrate= 300.6kbits/s dup=1 drop=0 speed=6.15x    frame=26462 fps=147 q=32.0 size=   40515kB time=00:18:23.85 bitrate= 300.7kbits/s dup=1 drop=0 speed=6.15x    frame=26513 fps=147 q=32.0 size=   40604kB time=00:18:25.98 bitrate= 300.8kbits/s dup=1 drop=0 speed=6.14x    frame=26585 fps=147 q=32.0 size=   40732kB time=00:18:28.97 bitrate= 300.9kbits/s dup=1 drop=0 speed=6.14x    frame=26646 fps=147 q=32.0 size=   40865kB time=00:18:31.53 bitrate= 301.2kbits/s dup=1 drop=0 speed=6.14x    frame=26761 fps=147 q=32.0 size=   41008kB time=00:18:36.31 bitrate= 300.9kbits/s dup=1 drop=0 speed=6.15x    frame=26866 fps=148 q=32.0 size=   41151kB time=00:18:40.70 bitrate= 300.8kbits/s dup=1 drop=0 speed=6.15x    frame=26966 fps=148 q=32.0 size=   41248kB time=00:18:44.84 bitrate= 300.4kbits/s dup=1 drop=0 speed=6.16x    frame=27033 fps=148 q=32.0 size=   41399kB time=00:18:47.65 bitrate= 300.7kbits/s dup=1 drop=0 speed=6.16x    frame=27081 fps=147 q=32.0 size=   41496kB time=00:18:49.66 bitrate= 300.9kbits/s dup=1 drop=0 speed=6.15x    frame=27141 fps=147 q=32.0 size=   41601kB time=00:18:52.18 bitrate= 301.0kbits/s dup=1 drop=0 speed=6.15x    frame=27216 fps=147 q=32.0 size=   41677kB time=00:18:55.29 bitrate= 300.7kbits/s dup=1 drop=0 speed=6.15x    frame=27287 fps=147 q=32.0 size=   41780kB time=00:18:58.24 bitrate= 300.7kbits/s dup=1 drop=0 speed=6.15x    frame=27354 fps=147 q=32.0 size=   41877kB time=00:19:01.09 bitrate= 300.6kbits/s dup=1 drop=0 speed=6.15x    frame=27420 fps=147 q=32.0 size=   41975kB time=00:19:03.78 bitrate= 300.6kbits/s dup=1 drop=0 speed=6.14x    frame=27493 fps=147 q=32.0 size=   42085kB time=00:19:06.81 bitrate= 300.6kbits/s dup=1 drop=0 speed=6.14x    frame=27598 fps=147 q=32.0 size=   42206kB time=00:19:11.21 bitrate= 300.3kbits/s dup=1 drop=0 speed=6.15x    frame=27683 fps=148 q=32.0 size=   42330kB time=00:19:14.79 bitrate= 300.3kbits/s dup=1 drop=0 speed=6.15x    frame=27783 fps=148 q=32.0 size=   42461kB time=00:19:18.97 bitrate= 300.1kbits/s dup=1 drop=0 speed=6.16x    frame=27865 fps=148 q=32.0 size=   42554kB time=00:19:22.34 bitrate= 299.9kbits/s dup=1 drop=0 speed=6.16x    frame=27925 fps=148 q=32.0 size=   42636kB time=00:19:24.86 bitrate= 299.8kbits/s dup=1 drop=0 speed=6.16x    frame=27985 fps=148 q=32.0 size=   42735kB time=00:19:27.33 bitrate= 299.9kbits/s dup=1 drop=0 speed=6.15x    frame=28064 fps=148 q=32.0 size=   42882kB time=00:19:30.66 bitrate= 300.1kbits/s dup=1 drop=0 speed=6.16x    frame=28155 fps=148 q=29.0 size=   42974kB time=00:19:34.46 bitrate= 299.7kbits/s dup=1 drop=0 speed=6.16x    frame=28209 fps=148 q=32.0 size=   43079kB time=00:19:36.72 bitrate= 299.9kbits/s dup=1 drop=0 speed=6.16x    frame=28260 fps=147 q=32.0 size=   43169kB time=00:19:38.81 bitrate= 300.0kbits/s dup=1 drop=0 speed=6.15x    frame=28349 fps=148 q=32.0 size=   43254kB time=00:19:42.57 bitrate= 299.6kbits/s dup=1 drop=0 speed=6.15x    frame=28430 fps=148 q=32.0 size=   43380kB time=00:19:45.94 bitrate= 299.7kbits/s dup=1 drop=0 speed=6.15x    frame=28508 fps=148 q=32.0 size=   43454kB time=00:19:49.18 bitrate= 299.3kbits/s dup=1 drop=0 speed=6.16x    frame=28576 fps=148 q=32.0 size=   43555kB time=00:19:52.00 bitrate= 299.3kbits/s dup=1 drop=0 speed=6.15x    frame=28652 fps=148 q=32.0 size=   43655kB time=00:19:55.15 bitrate= 299.2kbits/s dup=1 drop=0 speed=6.15x    frame=28712 fps=147 q=32.0 size=   43738kB time=00:19:57.67 bitrate= 299.2kbits/s dup=1 drop=0 speed=6.15x    frame=28772 fps=147 q=32.0 size=   43816kB time=00:20:00.19 bitrate= 299.1kbits/s dup=1 drop=0 speed=6.15x    frame=28837 fps=147 q=32.0 size=   43905kB time=00:20:02.92 bitrate= 299.0kbits/s dup=1 drop=0 speed=6.15x    frame=28921 fps=147 q=32.0 size=   44042kB time=00:20:06.42 bitrate= 299.1kbits/s dup=1 drop=0 speed=6.15x    frame=28995 fps=147 q=32.0 size=   44230kB time=00:20:09.49 bitrate= 299.6kbits/s dup=1 drop=0 speed=6.15x    frame=29039 fps=147 q=32.0 size=   44412kB time=00:20:11.32 bitrate= 300.3kbits/s dup=1 drop=0 speed=6.14x    frame=29098 fps=147 q=32.0 size=   44551kB time=00:20:13.80 bitrate= 300.7kbits/s dup=1 drop=0 speed=6.14x    frame=29184 fps=147 q=32.0 size=   44647kB time=00:20:17.38 bitrate= 300.4kbits/s dup=1 drop=0 speed=6.14x    frame=29263 fps=147 q=32.0 size=   44747kB time=00:20:20.67 bitrate= 300.3kbits/s dup=1 drop=0 speed=6.14x    frame=29344 fps=147 q=32.0 size=   44867kB time=00:20:24.04 bitrate= 300.3kbits/s dup=1 drop=0 speed=6.14x    frame=29378 fps=147 q=32.0 size=   45041kB time=00:20:25.45 bitrate= 301.1kbits/s dup=1 drop=0 speed=6.13x    frame=29420 fps=147 q=32.0 size=   45160kB time=00:20:27.20 bitrate= 301.5kbits/s dup=1 drop=0 speed=6.12x    frame=29471 fps=147 q=32.0 size=   45290kB time=00:20:29.33 bitrate= 301.8kbits/s dup=1 drop=0 speed=6.12x    frame=29507 fps=146 q=32.0 size=   45434kB time=00:20:30.82 bitrate= 302.4kbits/s dup=1 drop=0 speed=6.11x    frame=29560 fps=146 q=32.0 size=   45590kB time=00:20:33.04 bitrate= 302.9kbits/s dup=1 drop=0 speed=6.11x    frame=29662 fps=147 q=32.0 size=   45728kB time=00:20:37.31 bitrate= 302.8kbits/s dup=1 drop=0 speed=6.11x    frame=29748 fps=147 q=32.0 size=   45808kB time=00:20:40.93 bitrate= 302.4kbits/s dup=1 drop=0 speed=6.11x    frame=29800 fps=146 q=32.0 size=   45986kB time=00:20:43.07 bitrate= 303.1kbits/s dup=1 drop=0 speed=6.11x    frame=29866 fps=146 q=32.0 size=   46119kB time=00:20:45.80 bitrate= 303.3kbits/s dup=1 drop=0 speed=6.11x    frame=29949 fps=146 q=32.0 size=   46223kB time=00:20:49.25 bitrate= 303.1kbits/s dup=1 drop=0 speed=6.11x    frame=30021 fps=146 q=32.0 size=   46303kB time=00:20:52.28 bitrate= 302.9kbits/s dup=1 drop=0 speed=6.11x    frame=30106 fps=147 q=32.0 size=   46423kB time=00:20:55.83 bitrate= 302.8kbits/s dup=1 drop=0 speed=6.11x    frame=30223 fps=147 q=32.0 size=   46544kB time=00:21:00.69 bitrate= 302.4kbits/s dup=1 drop=0 speed=6.12x    frame=30325 fps=147 q=32.0 size=   46653kB time=00:21:04.96 bitrate= 302.1kbits/s dup=1 drop=0 speed=6.13x    frame=30418 fps=147 q=32.0 size=   46756kB time=00:21:08.84 bitrate= 301.9kbits/s dup=1 drop=0 speed=6.13x    frame=30500 fps=147 q=32.0 size=   46845kB time=00:21:12.25 bitrate= 301.6kbits/s dup=1 drop=0 speed=6.13x    frame=30565 fps=147 q=32.0 size=   46939kB time=00:21:14.98 bitrate= 301.6kbits/s dup=1 drop=0 speed=6.13x    frame=30633 fps=147 q=32.0 size=   47032kB time=00:21:17.80 bitrate= 301.5kbits/s dup=1 drop=0 speed=6.13x    frame=30711 fps=147 q=32.0 size=   47128kB time=00:21:21.08 bitrate= 301.4kbits/s dup=1 drop=0 speed=6.13x    frame=30777 fps=147 q=32.0 size=   47226kB time=00:21:23.81 bitrate= 301.3kbits/s dup=1 drop=0 speed=6.13x    frame=30877 fps=147 q=32.0 size=   47318kB time=00:21:28.00 bitrate= 301.0kbits/s dup=1 drop=0 speed=6.13x    frame=30982 fps=147 q=32.0 size=   47439kB time=00:21:32.39 bitrate= 300.7kbits/s dup=1 drop=0 speed=6.14x    frame=31048 fps=147 q=32.0 size=   47568kB time=00:21:35.12 bitrate= 300.9kbits/s dup=1 drop=0 speed=6.14x    frame=31112 fps=147 q=32.0 size=   47652kB time=00:21:37.81 bitrate= 300.8kbits/s dup=1 drop=0 speed=6.14x    frame=31176 fps=147 q=32.0 size=   47733kB time=00:21:40.45 bitrate= 300.7kbits/s dup=1 drop=0 speed=6.13x    frame=31243 fps=147 q=32.0 size=   47837kB time=00:21:43.23 bitrate= 300.7kbits/s dup=1 drop=0 speed=6.13x    frame=31297 fps=147 q=32.0 size=   47939kB time=00:21:45.49 bitrate= 300.8kbits/s dup=1 drop=0 speed=6.13x    frame=31344 fps=147 q=32.0 size=   48023kB time=00:21:47.45 bitrate= 300.9kbits/s dup=1 drop=0 speed=6.12x    frame=31392 fps=147 q=32.0 size=   48115kB time=00:21:49.46 bitrate= 301.0kbits/s dup=1 drop=0 speed=6.12x    frame=31441 fps=147 q=32.0 size=   48210kB time=00:21:51.51 bitrate= 301.1kbits/s dup=1 drop=0 speed=6.11x    frame=31495 fps=146 q=32.0 size=   48327kB time=00:21:53.77 bitrate= 301.3kbits/s dup=1 drop=0 speed=6.11x    frame=31545 fps=146 q=32.0 size=   48416kB time=00:21:55.86 bitrate= 301.4kbits/s dup=1 drop=0 speed= 6.1x    frame=31582 fps=146 q=32.0 size=   48536kB time=00:21:57.39 bitrate= 301.8kbits/s dup=1 drop=0 speed= 6.1x    frame=31626 fps=146 q=32.0 size=   48676kB time=00:21:59.23 bitrate= 302.3kbits/s dup=1 drop=0 speed=6.09x    frame=31671 fps=146 q=32.0 size=   48814kB time=00:22:01.11 bitrate= 302.7kbits/s dup=1 drop=0 speed=6.08x    frame=31725 fps=146 q=32.0 size=   48978kB time=00:22:03.37 bitrate= 303.2kbits/s dup=1 drop=0 speed=6.08x    frame=31785 fps=146 q=32.0 size=   49184kB time=00:22:05.84 bitrate= 303.9kbits/s dup=1 drop=0 speed=6.08x    frame=31830 fps=146 q=32.0 size=   49358kB time=00:22:07.72 bitrate= 304.5kbits/s dup=1 drop=0 speed=6.07x    frame=31867 fps=145 q=32.0 size=   49559kB time=00:22:09.30 bitrate= 305.4kbits/s dup=1 drop=0 speed=6.06x    frame=31930 fps=145 q=32.0 size=   49726kB time=00:22:11.90 bitrate= 305.8kbits/s dup=1 drop=0 speed=6.06x    frame=32011 fps=145 q=32.0 size=   49836kB time=00:22:15.27 bitrate= 305.7kbits/s dup=1 drop=0 speed=6.06x    frame=32071 fps=145 q=32.0 size=   49995kB time=00:22:17.79 bitrate= 306.1kbits/s dup=1 drop=0 speed=6.06x    frame=32112 fps=145 q=32.0 size=   50095kB time=00:22:19.49 bitrate= 306.4kbits/s dup=1 drop=0 speed=6.06x    frame=32187 fps=145 q=32.0 size=   50257kB time=00:22:22.61 bitrate= 306.6kbits/s dup=1 drop=0 speed=6.06x    frame=32253 fps=145 q=32.0 size=   50396kB time=00:22:25.34 bitrate= 306.9kbits/s dup=1 drop=0 speed=6.05x    frame=32318 fps=145 q=32.0 size=   50567kB time=00:22:28.07 bitrate= 307.3kbits/s dup=1 drop=0 speed=6.05x    frame=32388 fps=145 q=32.0 size=   50691kB time=00:22:31.01 bitrate= 307.4kbits/s dup=1 drop=0 speed=6.05x    frame=32439 fps=145 q=32.0 size=   50918kB time=00:22:33.15 bitrate= 308.3kbits/s dup=1 drop=0 speed=6.05x    frame=32512 fps=145 q=32.0 size=   51102kB time=00:22:36.18 bitrate= 308.7kbits/s dup=1 drop=0 speed=6.05x    frame=32585 fps=145 q=32.0 size=   51253kB time=00:22:39.21 bitrate= 308.9kbits/s dup=1 drop=0 speed=6.05x    frame=32634 fps=145 q=32.0 size=   51392kB time=00:22:41.25 bitrate= 309.3kbits/s dup=1 drop=0 speed=6.04x    frame=32676 fps=145 q=32.0 size=   51556kB time=00:22:43.05 bitrate= 309.9kbits/s dup=1 drop=0 speed=6.04x    frame=32718 fps=145 q=32.0 size=   51716kB time=00:22:44.80 bitrate= 310.4kbits/s dup=1 drop=0 speed=6.03x    frame=32766 fps=144 q=32.0 size=   51874kB time=00:22:46.76 bitrate= 310.9kbits/s dup=1 drop=0 speed=6.03x    frame=32815 fps=144 q=32.0 size=   52014kB time=00:22:48.81 bitrate= 311.3kbits/s dup=1 drop=0 speed=6.02x    frame=32864 fps=144 q=32.0 size=   52138kB time=00:22:50.85 bitrate= 311.6kbits/s dup=1 drop=0 speed=6.02x    frame=32919 fps=144 q=32.0 size=   52245kB time=00:22:53.16 bitrate= 311.7kbits/s dup=1 drop=0 speed=6.01x    frame=32996 fps=144 q=32.0 size=   52373kB time=00:22:56.36 bitrate= 311.7kbits/s dup=1 drop=0 speed=6.01x    frame=33054 fps=144 q=32.0 size=   52485kB time=00:22:58.79 bitrate= 311.8kbits/s dup=1 drop=0 speed=6.01x    frame=33107 fps=144 q=32.0 size=   52620kB time=00:23:01.01 bitrate= 312.1kbits/s dup=1 drop=0 speed=6.01x    frame=33169 fps=144 q=32.0 size=   52761kB time=00:23:03.57 bitrate= 312.4kbits/s dup=1 drop=0 speed=   6x    frame=33225 fps=144 q=32.0 size=   52872kB time=00:23:05.92 bitrate= 312.5kbits/s dup=1 drop=0 speed=   6x    frame=33294 fps=144 q=32.0 size=   52960kB time=00:23:08.82 bitrate= 312.4kbits/s dup=1 drop=0 speed=   6x    frame=33396 fps=144 q=32.0 size=   53041kB time=00:23:13.04 bitrate= 311.9kbits/s dup=1 drop=0 speed=6.01x    frame=33470 fps=144 q=32.0 size=   53217kB time=00:23:16.11 bitrate= 312.3kbits/s dup=1 drop=0 speed=6.01x    frame=33528 fps=144 q=32.0 size=   53347kB time=00:23:18.55 bitrate= 312.5kbits/s dup=1 drop=0 speed=   6x    frame=33579 fps=144 q=32.0 size=   53441kB time=00:23:20.68 bitrate= 312.6kbits/s dup=1 drop=0 speed=   6x    frame=33638 fps=144 q=32.0 size=   53541kB time=00:23:23.11 bitrate= 312.6kbits/s dup=1 drop=0 speed=   6x    frame=33710 fps=144 q=32.0 size=   53645kB time=00:23:26.14 bitrate= 312.5kbits/s dup=1 drop=0 speed=   6x    frame=33782 fps=144 q=32.0 size=   53733kB time=00:23:29.17 bitrate= 312.4kbits/s dup=1 drop=0 speed=   6x    frame=33852 fps=144 q=32.0 size=   53824kB time=00:23:32.07 bitrate= 312.3kbits/s dup=1 drop=0 speed=   6x    frame=33927 fps=144 q=32.0 size=   53935kB time=00:23:35.19 bitrate= 312.2kbits/s dup=1 drop=0 speed=   6x    frame=33999 fps=144 q=32.0 size=   54037kB time=00:23:38.21 bitrate= 312.1kbits/s dup=1 drop=0 speed=   6x    frame=34056 fps=144 q=32.0 size=   54142kB time=00:23:40.56 bitrate= 312.2kbits/s dup=1 drop=0 speed=5.99x    frame=34116 fps=144 q=32.0 size=   54227kB time=00:23:43.08 bitrate= 312.2kbits/s dup=1 drop=0 speed=5.99x    frame=34174 fps=144 q=32.0 size=   54318kB time=00:23:45.51 bitrate= 312.1kbits/s dup=1 drop=0 speed=5.99x    frame=34222 fps=143 q=32.0 size=   54402kB time=00:23:47.47 bitrate= 312.2kbits/s dup=1 drop=0 speed=5.98x    frame=34270 fps=143 q=32.0 size=   54501kB time=00:23:49.52 bitrate= 312.3kbits/s dup=1 drop=0 speed=5.98x    frame=34311 fps=143 q=32.0 size=   54583kB time=00:23:51.23 bitrate= 312.4kbits/s dup=1 drop=0 speed=5.97x    frame=34353 fps=143 q=32.0 size=   54671kB time=00:23:52.98 bitrate= 312.5kbits/s dup=1 drop=0 speed=5.97x    frame=34398 fps=143 q=32.0 size=   54761kB time=00:23:54.85 bitrate= 312.6kbits/s dup=1 drop=0 speed=5.96x    frame=34441 fps=143 q=32.0 size=   54846kB time=00:23:56.65 bitrate= 312.7kbits/s dup=1 drop=0 speed=5.96x    frame=34501 fps=143 q=32.0 size=   54967kB time=00:23:59.12 bitrate= 312.9kbits/s dup=1 drop=0 speed=5.96x    frame=34569 fps=143 q=32.0 size=   55061kB time=00:24:01.98 bitrate= 312.8kbits/s dup=1 drop=0 speed=5.96x    frame=34634 fps=143 q=32.0 size=   55137kB time=00:24:04.67 bitrate= 312.7kbits/s dup=1 drop=0 speed=5.96x    frame=34707 fps=143 q=32.0 size=   55270kB time=00:24:07.70 bitrate= 312.7kbits/s dup=1 drop=0 speed=5.96x    frame=34778 fps=143 q=32.0 size=   55467kB time=00:24:10.68 bitrate= 313.2kbits/s dup=1 drop=0 speed=5.95x    frame=34833 fps=143 q=32.0 size=   55625kB time=00:24:12.99 bitrate= 313.6kbits/s dup=1 drop=0 speed=5.95x    frame=34921 fps=143 q=32.0 size=   55783kB time=00:24:16.66 bitrate= 313.7kbits/s dup=1 drop=0 speed=5.95x    frame=34975 fps=143 q=32.0 size=   55942kB time=00:24:18.92 bitrate= 314.1kbits/s dup=1 drop=0 speed=5.95x    frame=35034 fps=143 q=32.0 size=   56074kB time=00:24:21.35 bitrate= 314.3kbits/s dup=1 drop=0 speed=5.95x    frame=35084 fps=142 q=32.0 size=   56252kB time=00:24:23.44 bitrate= 314.9kbits/s dup=1 drop=0 speed=5.94x    frame=35123 fps=142 q=32.0 size=   56445kB time=00:24:25.06 bitrate= 315.6kbits/s dup=1 drop=0 speed=5.94x    frame=35161 fps=142 q=32.0 size=   56619kB time=00:24:26.64 bitrate= 316.2kbits/s dup=1 drop=0 speed=5.93x    frame=35205 fps=142 q=32.0 size=   56738kB time=00:24:28.52 bitrate= 316.5kbits/s dup=1 drop=0 speed=5.93x    frame=35319 fps=142 q=32.0 size=   56887kB time=00:24:33.25 bitrate= 316.3kbits/s dup=1 drop=0 speed=5.93x    frame=35514 fps=143 q=32.0 size=   57026kB time=00:24:41.40 bitrate= 315.3kbits/s dup=1 drop=0 speed=5.95x    [mp4 @ 0x30da3c0] Starting second pass: moving the moov atom to the beginning of the file
frame=35537 fps=143 q=-1.0 Lsize=   57902kB time=00:24:42.06 bitrate= 320.0kbits/s dup=1 drop=0 speed=5.95x    
video:47392kB audio:9667kB subtitle:0kB other streams:0kB global headers:0kB muxing overhead: 1.476399%
[libx264 @ 0x30684c0] frame I:339   Avg QP:22.02  size: 16764
[libx264 @ 0x30684c0] frame P:11765 Avg QP:24.85  size:  2860
[libx264 @ 0x30684c0] frame B:23433 Avg QP:29.79  size:   392
[libx264 @ 0x30684c0] consecutive B-frames:  3.6%  7.8% 52.6% 36.0%
[libx264 @ 0x30684c0] mb I  I16..4: 26.7% 46.4% 26.9%
[libx264 @ 0x30684c0] mb P  I16..4:  4.3%  3.3%  1.2%  P16..4: 33.3%  5.0%  4.2%  0.2%  0.0%    skip:48.4%
[libx264 @ 0x30684c0] mb B  I16..4:  0.2%  0.2%  0.1%  B16..8: 15.1%  1.0%  0.2%  direct: 0.3%  skip:82.9%  L0:36.3% L1:61.7% BI: 2.0%
[libx264 @ 0x30684c0] 8x8 transform intra:40.1% inter:53.4%
[libx264 @ 0x30684c0] coded y,uvDC,uvAC intra: 31.4% 48.9% 7.1% inter: 2.1% 3.9% 0.0%
[libx264 @ 0x30684c0] i16 v,h,dc,p: 39% 28% 20% 12%
[libx264 @ 0x30684c0] i8 v,h,dc,ddl,ddr,vr,hd,vl,hu: 23% 18% 41%  3%  3%  3%  3%  3%  4%
[libx264 @ 0x30684c0] i4 v,h,dc,ddl,ddr,vr,hd,vl,hu: 28% 20% 21%  5%  5%  6%  5%  5%  4%
[libx264 @ 0x30684c0] i8c dc,h,v,p: 51% 22% 22%  5%
[libx264 @ 0x30684c0] Weighted P-Frames: Y:1.4% UV:1.0%
[libx264 @ 0x30684c0] ref P L0: 62.0%  9.8% 13.6%  4.4%  3.1%  2.8%  2.3%  1.3%  0.7%  0.0%
[libx264 @ 0x30684c0] ref B L0: 83.4%  7.9%  4.3%  1.4%  1.2%  1.1%  0.7%
[libx264 @ 0x30684c0] ref B L1: 91.2%  8.8%
[libx264 @ 0x30684c0] kb/s:261.93
